<?xml version="1.0" encoding="utf-8"?>
<!-- Generator: Adobe Illustrator 21.0.2, SVG Export Plug-In . SVG Version: 6.00 Build 0)  -->
<svg version="1.1" id="Layer_1" xmlns="http://www.w3.org/2000/svg" xmlns:xlink="http://www.w3.org/1999/xlink" x="0px" y="0px"
	 viewBox="0 0 125 100" enable-background="new 0 0 125 100" xml:space="preserve">
<g>
	<circle fill="#FF530D" cx="42.9" cy="57.1" r="42.9"/>
</g>
<g>
	<g>
		<path fill="#303000" d="M40.4,40.8c0.7,0,1.3,0.3,1.8,0.8l38.3,38.3c1,1,1,2.7,0,3.7l-10,10c-0.5,0.5-1.2,0.8-1.8,0.8
			c-0.7,0-1.3-0.3-1.8-0.8L28.6,55.2c-1-1-1-2.7,0-3.7l10-10C39.1,41,39.8,40.8,40.4,40.8 M40.4,35.6c-2.1,0-4,0.8-5.5,2.3l-10,10
			c-1.5,1.5-2.3,3.4-2.3,5.5c0,2.1,0.8,4,2.3,5.5l38.3,38.3c1.5,1.5,3.4,2.3,5.5,2.3s4-0.8,5.5-2.3l10-10c1.5-1.5,2.3-3.4,2.3-5.5
			c0-2.1-0.8-4-2.3-5.5L45.9,37.9C44.5,36.4,42.5,35.6,40.4,35.6L40.4,35.6z"/>
		<path fill="#303000" d="M92.8,25c0.7,0,1.3,0.3,1.8,0.8l1.7,1.7c1,1,1,2.7,0,3.7L85.5,42c-0.5,0.5-1.2,0.8-1.8,0.8
			c-0.7,0-1.3-0.3-1.8-0.8l-1.7-1.7c-1-1-1-2.7,0-3.7L91,25.7C91.5,25.2,92.1,25,92.8,25 M92.8,19.8c-2.1,0-4,0.8-5.5,2.3L76.4,33
			c-1.5,1.5-2.3,3.4-2.3,5.5c0,2.1,0.8,4,2.3,5.5l1.7,1.7c1.5,1.5,3.4,2.3,5.5,2.3c2.1,0,4-0.8,5.5-2.3L100,34.8
			c1.5-1.5,2.3-3.4,2.3-5.5c0-2.1-0.8-4-2.3-5.5l-1.7-1.7C96.8,20.6,94.9,19.8,92.8,19.8L92.8,19.8z"/>
		<g>
			<path fill="#303000" d="M84.3,99.8c-0.7,0-1.3-0.3-1.8-0.8L76,92.7c-1-1-1-2.6,0-3.7c1-1,2.6-1,3.7,0l4.6,4.6l11-11L66.9,54.2
				c-1-1-1-2.6,0-3.7l9.4-9.4c1-1,2.6-1,3.7,0c1,1,1,2.6,0,3.7l-7.5,7.5l28.4,28.4c0.5,0.5,0.8,1.1,0.8,1.8s-0.3,1.3-0.8,1.8
				L86.1,99.1C85.6,99.6,84.9,99.8,84.3,99.8z"/>
		</g>
	</g>
	<path fill="#FFFF00" d="M92.8,25c0.7,0,1.3,0.3,1.8,0.8l1.7,1.7c1,1,1,2.7,0,3.7L85.5,42c-0.5,0.5-1.2,0.8-1.8,0.8
		c-0.7,0-1.3-0.3-1.8-0.8l-1.7-1.7c-1-1-1-2.7,0-3.7L91,25.7C91.5,25.2,92.1,25,92.8,25"/>
</g>
</svg>
