<?xml version="1.0" encoding="utf-8"?>
<!-- Generator: Adobe Illustrator 21.0.2, SVG Export Plug-In . SVG Version: 6.00 Build 0)  -->
<svg version="1.1" id="Layer_1" xmlns="http://www.w3.org/2000/svg" xmlns:xlink="http://www.w3.org/1999/xlink" x="0px" y="0px"
	 viewBox="0 0 125 100" enable-background="new 0 0 125 100" xml:space="preserve">
<g>
	<circle fill="#FF530D" cx="42.9" cy="57.1" r="42.9"/>
</g>
<g>
	<g>
		<path fill="#303000" d="M62.5,100c-6.4,0-11.6-5.2-11.6-11.6V35.3c0-1.7,1.3-3,3-3s3,1.3,3,3v53.1c0,3.1,2.5,5.6,5.6,5.6
			c3.1,0,5.6-2.5,5.6-5.6V50.2c0-1.7,1.3-3,3-3s3,1.3,3,3v38.2C74.1,94.8,68.9,100,62.5,100z"/>
		<path fill="#303000" d="M71.1,45.7c-1.7,0-3-1.3-3-3v-7.4c0-1.7,1.3-3,3-3s3,1.3,3,3v7.4C74.1,44.3,72.8,45.7,71.1,45.7z"/>
		<path fill="#303000" d="M37.8,100c-6.4,0-11.6-5.2-11.6-11.6V35.3c0-1.7,1.3-3,3-3s3,1.3,3,3v53.1c0,3.1,2.5,5.6,5.6,5.6
			s5.6-2.5,5.6-5.6V50.2c0-1.7,1.3-3,3-3s3,1.3,3,3v38.2C49.5,94.8,44.2,100,37.8,100z"/>
		<path fill="#303000" d="M46.5,45.7c-1.7,0-3-1.3-3-3v-7.4c0-1.7,1.3-3,3-3s3,1.3,3,3v7.4C49.5,44.3,48.1,45.7,46.5,45.7z"/>
		<path fill="#303000" d="M87.2,100c-6.4,0-11.6-5.2-11.6-11.6V35.3c0-1.7,1.3-3,3-3s3,1.3,3,3v53.1c0,3.1,2.5,5.6,5.6,5.6
			s5.6-2.5,5.6-5.6V50.2c0-1.7,1.3-3,3-3s3,1.3,3,3v38.2C98.8,94.8,93.6,100,87.2,100z"/>
		<path fill="#303000" d="M95.8,45.7c-1.7,0-3-1.3-3-3v-7.4c0-1.7,1.3-3,3-3s3,1.3,3,3v7.4C98.8,44.3,97.5,45.7,95.8,45.7z"/>
		<path fill="#303000" d="M98.3,45.7H26.7c-1.7,0-3-1.3-3-3s1.3-3,3-3h71.6c1.7,0,3,1.3,3,3S100,45.7,98.3,45.7z"/>
		<path fill="#303000" d="M37.4,67.9h-8.2c-1.7,0-3-1.3-3-3s1.3-3,3-3h8.2c1.7,0,3,1.3,3,3S39,67.9,37.4,67.9z"/>
		<path fill="#303000" d="M62.1,63h-8.2c-1.7,0-3-1.3-3-3s1.3-3,3-3h8.2c1.7,0,3,1.3,3,3S63.7,63,62.1,63z"/>
		<path fill="#303000" d="M86.8,72.8h-8.2c-1.7,0-3-1.3-3-3s1.3-3,3-3h8.2c1.7,0,3,1.3,3,3S88.4,72.8,86.8,72.8z"/>
		<path fill="#303000" d="M65.2,87.1"/>
		<path fill="#303000" d="M61.5,90.8"/>
		<path fill="#303000" d="M36.8,90.8"/>
		<path fill="#303000" d="M63.5,34c-4.7,0-8.5-3.8-8.5-8.5c0-4.7,3.8-8.5,8.5-8.5c4.7,0,8.5,3.8,8.5,8.5C72,30.2,68.2,34,63.5,34z"
			/>
		<path fill="#FFFF00" d="M37.8,58c-2.3,0-4.2-1.9-4.2-4.2s1.9-4.2,4.2-4.2s4.2,1.9,4.2,4.2S40.2,58,37.8,58z"/>
		<path fill="#303000" d="M63.8,75.3c-1.7,0-3-1.3-3-3s1.3-3,3-3h0c1.7,0,3,1.3,3,3S65.4,75.3,63.8,75.3z"/>
		<path fill="#303000" d="M60.8,82.7c-1.7,0-3-1.3-3-3s1.3-3,3-3h0c1.7,0,3,1.3,3,3S62.4,82.7,60.8,82.7z"/>
		<path fill="#303000" d="M86,80.2c-1.7,0-3-1.3-3-3s1.3-3,3-3h0c1.7,0,3,1.3,3,3S87.6,80.2,86,80.2z"/>
	</g>
	<circle fill="#FFFF00" cx="63.5" cy="25.5" r="3.2"/>
</g>
<circle fill="#FFFF00" cx="39.5" cy="30.5" r="3.2"/>
</svg>
