<?xml version="1.0" encoding="utf-8"?>
<!-- Generator: Adobe Illustrator 21.0.2, SVG Export Plug-In . SVG Version: 6.00 Build 0)  -->
<svg version="1.1" id="Layer_1" xmlns="http://www.w3.org/2000/svg" xmlns:xlink="http://www.w3.org/1999/xlink" x="0px" y="0px"
	 viewBox="0 0 125 100" style="enable-background:new 0 0 125 100;" xml:space="preserve">
<style type="text/css">
	.st0{fill:#0DFFFF;}
</style>
<g>
	<polygon class="st0" points="62.5,0 12.5,25 12.5,37.5 62.5,12.5 112.5,37.5 112.5,25 	"/>
	<path class="st0" d="M87.5,37.5V100h18.8V37.5H87.5z M102.1,45.8h-6.2V50h6.2v4.2h-3.1v4.2h3.1v4.2h-6.2v4.2h6.2v4.2h-3.1V75h3.1
		v4.2h-6.2v4.2h6.2v4.2h-3.1v4.2h3.1v4.2H91.7V41.7h10.4V45.8z"/>
	<path class="st0" d="M53.6,48.5c-5.4-7.9-12.5-9.6-17.4-9.6c-3.2,0-5.5,0.7-5.6,0.8c-0.3,0.1-0.6,0.3-0.8,0.5l-1.5,1.5h-1.2
		c0-1.2-0.9-2.1-2.1-2.1h-4.2c-1.2,0-2.1,0.9-2.1,2.1v6.2c0,1.2,0.9,2.1,2.1,2.1H25c1.2,0,2.1-0.9,2.1-2.1h2.1v14.2l-2,5.9
		c-0.1,0.2-0.1,0.4-0.1,0.7v29.2c0,1.2,0.9,2.1,2.1,2.1h8.3c1.2,0,2.1-0.9,2.1-2.1V68.8c0-0.2,0-0.4-0.1-0.7l-2-5.9v-13
		c0.9-0.4,2-0.6,3.2-0.6c4.9,0,10.3,3.2,10.4,3.2c0.3,0.2,0.7,0.3,1,0.3c1.2,0.1,2.2-0.9,2.2-2.1C54.2,49.4,54,48.9,53.6,48.5z"/>
	<path class="st0" d="M70.8,60.6c1-1.7,2-3.8,2-6.1c0-2.2-0.9-4.3-2.5-6c-0.5-0.5-1.2-1.1-1.9-1.7c-2.3-1.8-3.7-3.2-3.7-5.2
		c0-2.7,2.6-5.9,3.6-6.9c0.8-0.8,0.8-2.1,0-2.9c-0.8-0.8-2.1-0.8-2.9,0c-0.5,0.5-4.8,4.9-4.8,9.8c0,4.2,3.1,6.6,5.3,8.4
		c0.6,0.5,1.1,0.9,1.6,1.4c0.9,0.9,1.3,1.9,1.3,3c0,2.3-1.7,4.7-2.8,6c-7.2,0.1-13.7,1.6-13.7,10.4v8.3c0,10.2,5.5,20.8,14.6,20.8
		c9.5,0,14.6-10.7,14.6-20.8v-8.3C81.3,63.4,76.6,61.2,70.8,60.6z M77.1,70.8v2.1h-8.3v-8.3C75.8,64.9,77.1,66.9,77.1,70.8z
		 M64.6,64.6v8.3h-8.3v-2.1C56.3,66.9,57.5,64.9,64.6,64.6z M66.7,95.8c-6.4,0-10.4-8.7-10.4-16.7v-2.1h20.8v2.1
		C77.1,86.1,73.9,95.8,66.7,95.8z"/>
</g>
</svg>
