<?xml version="1.0" encoding="utf-8"?>
<!-- Generator: Adobe Illustrator 21.0.2, SVG Export Plug-In . SVG Version: 6.00 Build 0)  -->
<svg version="1.1" id="Layer_1" xmlns="http://www.w3.org/2000/svg" xmlns:xlink="http://www.w3.org/1999/xlink" x="0px" y="0px"
	 viewBox="0 0 125 100" style="enable-background:new 0 0 125 100;" xml:space="preserve">
<style type="text/css">
	.st0{fill:#FF530D;}
</style>
<g>
	<path class="st0" d="M27.2,57.1h-7.5c-5.6,0-10.8-2.7-10.8-8.9c0-4.5-0.2-19.7,6.9-19.7c1.2,0,7,4.7,14.5,4.7c2.6,0,5-0.4,7.4-1.3
		c-0.2,1.2-0.3,2.5-0.3,3.7c0,5.1,1.6,10.1,4.5,14.3C36.2,50.2,31,52.7,27.2,57.1z M30.4,28.6c-7.9,0-14.3-6.4-14.3-14.3
		S22.5,0,30.4,0c7.9,0,14.3,6.4,14.3,14.3S38.2,28.6,30.4,28.6z M86.9,100H38.1c-8.9,0-14.9-5.4-14.9-14.5c0-12.6,3-32,19.3-32
		c1.9,0,8.8,7.8,20,7.8s18.1-7.8,20-7.8c16.4,0,19.3,19.4,19.3,32C101.8,94.6,95.8,100,86.9,100z M62.5,57.1
		c-11.8,0-21.4-9.6-21.4-21.4s9.6-21.4,21.4-21.4s21.4,9.6,21.4,21.4S74.3,57.1,62.5,57.1z M94.6,28.6c-7.9,0-14.3-6.4-14.3-14.3
		S86.8,0,94.6,0c7.9,0,14.3,6.4,14.3,14.3S102.5,28.6,94.6,28.6z M105.2,57.1h-7.5c-3.7-4.5-9-7-14.8-7.1c2.9-4.2,4.5-9.2,4.5-14.3
		c0-1.2-0.1-2.5-0.3-3.7c2.4,0.8,4.9,1.3,7.4,1.3c7.5,0,13.3-4.7,14.5-4.7c7.1,0,6.9,15.2,6.9,19.7
		C116.1,54.5,110.8,57.1,105.2,57.1z"/>
</g>
</svg>
