<?xml version="1.0" encoding="utf-8"?>
<!-- Generator: Adobe Illustrator 16.0.0, SVG Export Plug-In . SVG Version: 6.00 Build 0)  -->
<!DOCTYPE svg PUBLIC "-//W3C//DTD SVG 1.0//EN" "http://www.w3.org/TR/2001/REC-SVG-20010904/DTD/svg10.dtd">
<svg version="1.0" id="Layer_1" xmlns="http://www.w3.org/2000/svg" xmlns:xlink="http://www.w3.org/1999/xlink" x="0px" y="0px"
	 width="397.854px" height="537.234px" viewBox="0 0 397.854 537.234" enable-background="new 0 0 397.854 537.234"
	 xml:space="preserve">
<g>
	<polygon fill="#FFF314" points="397.854,161.565 397.854,52.541 298.854,52.541 309.622,0 198.329,0 187.562,52.541 0,52.541 
		0,161.565 165.22,161.565 154.452,214.105 0,214.105 0,323.133 132.109,323.133 121.344,375.67 0,375.67 0,484.696 99,484.696
		88.234,537.234 199.526,537.234 210.293,484.696 397.854,484.696 397.854,375.67 232.636,375.67 243.402,323.133 397.854,323.133
		397.854,214.105 265.745,214.105 276.513,161.565 	"/>
</g>
</svg>
