<?xml version="1.0" encoding="utf-8"?>
<!-- Generator: Adobe Illustrator 21.0.2, SVG Export Plug-In . SVG Version: 6.00 Build 0)  -->
<svg version="1.1" id="Layer_1" xmlns="http://www.w3.org/2000/svg" xmlns:xlink="http://www.w3.org/1999/xlink" x="0px" y="0px"
	 viewBox="0 0 125 100" style="enable-background:new 0 0 125 100;" xml:space="preserve">
<style type="text/css">
	.st0{fill:#990DFF;}
</style>
<g>
	<g>
		<path class="st0" d="M123.3,32.3c1.1,1.4,1,3.5-0.2,4.9L65.3,98.8c-0.7,0.8-1.7,1.2-2.8,1.2c-1.1,0-2.1-0.4-2.8-1.2L2,37.3
			c-1.3-1.4-1.4-3.5-0.2-4.9L24.8,1.6c0.7-1,1.9-1.6,3.1-1.6h69.2c1.2,0,2.3,0.5,3.1,1.6L123.3,32.3z M45.6,7.7H29.8L12.5,30.8h20.8
			L45.6,7.7z M51.1,78.4l-18-40H13.7L51.1,78.4z M83.5,38.5H41.5l21,46.4L83.5,38.5z M83,30.8L70.7,7.7H54.3L42,30.8H83z
			 M111.3,38.5H91.9l-18,40L111.3,38.5z M112.5,30.8L95.2,7.7H79.4l12.3,23.1H112.5z"/>
	</g>
</g>
</svg>
