<?xml version="1.0" encoding="utf-8"?>
<!-- Generator: Adobe Illustrator 21.0.2, SVG Export Plug-In . SVG Version: 6.00 Build 0)  -->
<svg version="1.1" id="Layer_1" xmlns="http://www.w3.org/2000/svg" xmlns:xlink="http://www.w3.org/1999/xlink" x="0px" y="0px"
	 viewBox="0 0 125 100" enable-background="new 0 0 125 100" xml:space="preserve">
<circle fill="#9500FF" cx="82.1" cy="42.9" r="42.9"/>
<path fill="#FFFF00" d="M76.3,39.1c0,5.2-2.3,8.7-3.9,8.7s-3.9-3.5-3.9-8.7s2.3-8.7,3.9-8.7c0.7,0,1.6,0.7,2.3,2
	C75.8,34.2,76.3,36.6,76.3,39.1z"/>
<path fill="#FFFF00" d="M52.5,77c1.6,0,3.9,3.4,3.9,8.7s-2.3,8.7-3.9,8.7c-0.7,0-1.6-0.7-2.3-2c-1-1.7-1.6-4.2-1.6-6.7
	C48.8,80.4,51,77,52.5,77z"/>
<g>
	<path fill="#404000" d="M85.8,60.1c7.9,0,14.3,6.6,14.3,14.8s-6.4,14.8-14.3,14.8h-5.5c-1.1,6.1-4.8,10.4-9.2,10.4H52.5
		c-2.8,0-5.4-1.7-7.2-4.8c-0.9-1.5-1.5-3.2-1.9-5c-0.3-1.4-0.5-3-0.5-4.6c0-1.5,0.2-3,0.4-4.3c1.2-5.9,4.8-10.1,9.2-10.1H71
		c2.8,0,5.5,1.7,7.2,4.8c1.3,2.2,2.1,4.9,2.3,7.8h5.3c4.7,0,8.6-4.1,8.6-9c0-5-3.8-9-8.6-9H39.1c-7.9,0-14.3-6.6-14.3-14.8
		s6.5-14.8,14.3-14.8h5.4c0.9-6.6,4.7-11.5,9.4-11.5h18.5c2.8,0,5.4,1.7,7.2,4.8c1,1.6,1.6,3.6,2,5.7c0.2,1.3,0.3,2.6,0.3,3.9
		c0,1.5-0.2,3-0.4,4.3c-0.5,2.3-1.3,4.3-2.4,5.9c-1.7,2.6-4.1,4.2-6.8,4.2H53.9c-2.8,0-5.5-1.7-7.2-4.8c-1.1-1.9-1.9-4.2-2.2-6.7
		h-5.4c-4.7,0-8.6,4.1-8.6,9s3.8,9,8.6,9C39.1,60.1,85.8,60.1,85.8,60.1z M72.4,47.8c1.5,0,3.9-3.5,3.9-8.7c0-2.5-0.6-5-1.6-6.7
		c-0.7-1.2-1.6-2-2.3-2c-1.6,0-3.9,3.5-3.9,8.7S70.8,47.8,72.4,47.8z M71,94.3c1.5,0,3.9-3.5,3.9-8.7c0-2.5-0.6-5-1.6-6.7
		c-0.7-1.2-1.6-2-2.3-2H60.2c1.2,2.4,1.9,5.4,1.9,8.7s-0.7,6.3-1.9,8.7H71z M64.8,30.5H53.9c-1.5,0-3.9,3.5-3.9,8.7
		c0,2.5,0.6,5,1.6,6.7c0.7,1.2,1.6,2,2.3,2h10.8c-1.2-2.4-1.9-5.4-1.9-8.7C62.8,35.9,63.5,32.9,64.8,30.5z M56.4,85.6
		c0-5.2-2.3-8.7-3.9-8.7c-1.5,0-3.9,3.4-3.9,8.7c0,2.5,0.6,5,1.6,6.7c0.7,1.2,1.6,2,2.3,2C54.1,94.3,56.4,90.8,56.4,85.6z"/>
	<path fill="#404000" d="M95.8,27.9c5.9,6.2,5.9,16.2,0,22.4c-0.6,0.6-1.3,0.9-2.1,0.9c-0.7,0-1.4-0.3-2-0.8c-1.1-1.1-1.2-2.9-0.1-4
		c3.8-4,3.8-10.5,0-14.5c-1.1-1.1-1-3,0.1-4S94.7,26.8,95.8,27.9z"/>
	<path fill="#404000" d="M88.8,32.1c3.7,4,3.7,10.4,0.1,14.3c-0.6,0.6-1.3,0.9-2.1,0.9c-0.7,0-1.4-0.2-1.9-0.8
		c-0.7-0.7-1-1.7-0.9-2.6c0.1-0.5,0.3-1,0.7-1.4c1.6-1.8,1.6-4.8-0.1-6.5c-0.3-0.3-0.5-0.7-0.7-1.2c-0.3-1,0-2.1,0.8-2.9
		C85.8,30.9,87.7,30.9,88.8,32.1z"/>
	<path fill="#404000" d="M41.1,90.2c0.2,0.9-0.1,1.9-0.9,2.6c-0.6,0.5-1.2,0.8-2,0.8s-1.5-0.3-2.1-0.9c-3.7-4-3.7-10.4-0.1-14.3
		c1.1-1.2,2.9-1.2,4-0.2c0.8,0.8,1.1,1.9,0.8,2.9c-0.1,0.4-0.3,0.8-0.7,1.2c-1.6,1.8-1.6,4.8,0.1,6.5C40.8,89.2,41,89.7,41.1,90.2z"
		/>
	<path fill="#404000" d="M33.3,74.3c1.1,1.1,1.2,2.9,0.1,4c-3.8,4-3.8,10.5,0,14.5c1.1,1.1,1,2.9-0.1,4c-0.6,0.5-1.3,0.8-2,0.8
		c-0.8,0-1.5-0.3-2.1-0.9c-5.9-6.2-5.9-16.2,0-22.4C30.4,73.3,32.2,73.2,33.3,74.3z"/>
</g>
</svg>
