<?xml version="1.0" encoding="utf-8"?>
<!-- Generator: Adobe Illustrator 21.0.2, SVG Export Plug-In . SVG Version: 6.00 Build 0)  -->
<svg version="1.1" id="Layer_1" xmlns="http://www.w3.org/2000/svg" xmlns:xlink="http://www.w3.org/1999/xlink" x="0px" y="0px"
	 viewBox="0 0 125 100" enable-background="new 0 0 125 100" xml:space="preserve">
<g>
	<circle fill="#0DFFFF" cx="44.1" cy="44.3" r="44.1"/>
	<g>
		<path d="M89.9,36.4c0.8,0,1.5-0.3,2.1-0.9c0.5-0.5,0.9-1.3,0.9-2.1s-0.3-1.5-0.9-2.1c-1.1-1.1-3.1-1.1-4.2,0
			c-0.5,0.5-0.9,1.3-0.9,2.1s0.3,1.5,0.9,2.1S89.2,36.4,89.9,36.4z"/>
		<path d="M81.1,44.3c0.8,0,1.5-0.3,2.1-0.9c0.5-0.5,0.9-1.3,0.9-2.1s-0.3-1.5-0.9-2.1c-1.1-1.1-3.1-1.1-4.2,0
			c-0.5,0.5-0.9,1.3-0.9,2.1s0.3,1.5,0.9,2.1C79.6,43.9,80.3,44.3,81.1,44.3z"/>
		<path d="M73.3,44.3c0.8,0,1.5-0.3,2.1-0.9c0.5-0.5,0.9-1.3,0.9-2.1s-0.3-1.5-0.9-2.1c-1.1-1.1-3.1-1.1-4.2,0
			c-0.5,0.5-0.9,1.3-0.9,2.1s0.3,1.5,0.9,2.1C71.7,43.9,72.5,44.3,73.3,44.3z"/>
		<path d="M53.7,44.3c0.8,0,1.5-0.3,2.1-0.9c0.5-0.5,0.9-1.3,0.9-2.1s-0.3-1.5-0.9-2.1c-1.1-1.1-3.1-1.1-4.2,0
			c-0.5,0.5-0.9,1.3-0.9,2.1s0.3,1.5,0.9,2.1C52.1,43.9,52.9,44.3,53.7,44.3z"/>
		<path d="M81.1,36.4c0.8,0,1.5-0.3,2.1-0.9c0.5-0.5,0.9-1.3,0.9-2.1s-0.3-1.5-0.9-2.1c-1.1-1.1-3.1-1.1-4.2,0
			c-0.5,0.5-0.9,1.3-0.9,2.1s0.3,1.5,0.9,2.1S80.3,36.4,81.1,36.4z"/>
		<path d="M61.5,36.4c0.8,0,1.5-0.3,2.1-0.9c0.5-0.5,0.9-1.3,0.9-2.1s-0.3-1.5-0.9-2.1c-1.1-1.1-3.1-1.1-4.2,0
			c-0.5,0.5-0.9,1.3-0.9,2.1s0.3,1.5,0.9,2.1S60.7,36.4,61.5,36.4z"/>
		<path fill="#303000" d="M98.8,21.7H26.2c-1.6,0-2.9,1.3-2.9,2.9v24.5c0,1.6,1.3,2.9,2.9,2.9h3.9v45.1c0,1.6,1.3,2.9,2.9,2.9h51
			c1.6,0,2.9-1.3,2.9-2.9V68.8c0-4.9-4-8.8-8.8-8.8h-1c-1.6,0-3.1,0.4-4.3,1.1c-1.6-2.5-4.3-4.1-7.4-4.1h-1c-1.8,0-3.4,0.5-4.8,1.4
			C58,56.3,55.5,55,52.7,55h-1c-1,0-2,0.2-2.9,0.5V52h50c1.6,0,2.9-1.3,2.9-2.9V24.7C101.7,23,100.4,21.7,98.8,21.7z M36,47.2
			c0-2,1.7-2.9,2.9-2.9h1c1.3,0,2.9,1,2.9,2.9v32.4c0,1.6,1.3,2.9,2.9,2.9s2.9-1.3,2.9-2.9V63.9c0-1.6,1.3-2.9,2.9-2.9h1
			c1.6,0,2.9,1.3,2.9,2.9v15.7c0,1.6,1.3,2.9,2.9,2.9s2.9-1.3,2.9-2.9V65.8c0-1.6,1.3-2.9,2.9-2.9h1c1.6,0,2.9,1.3,2.9,2.9v13.7
			c0,1.6,1.3,2.9,2.9,2.9s2.9-1.3,2.9-2.9V68.8c0-1.6,1.3-2.9,2.9-2.9h1c1.6,0,2.9,1.3,2.9,2.9v25.5H36V47.2z M95.8,46.2H48.7
			c-0.5-4.4-4.2-7.8-8.8-7.8h-1c-4.5,0-8.3,3.4-8.8,7.8h-1V27.6h66.7V46.2z"/>
	</g>
</g>
</svg>
