<?xml version="1.0" encoding="utf-8"?>
<!-- Generator: Adobe Illustrator 21.0.2, SVG Export Plug-In . SVG Version: 6.00 Build 0)  -->
<svg version="1.1" id="Layer_1" xmlns="http://www.w3.org/2000/svg" xmlns:xlink="http://www.w3.org/1999/xlink" x="0px" y="0px"
	 viewBox="0 0 125 100" style="enable-background:new 0 0 125 100;" xml:space="preserve">
<style type="text/css">
	.st0{fill:#0DFFFF;}
	.st1{fill:#303000;}
</style>
<g>
	<circle class="st0" cx="44.1" cy="44.3" r="44.1"/>
</g>
<g>
	<path class="st1" d="M97.5,30h-23l-13.2-9.4c-0.9-0.7-2.1-0.7-3.1-0.2c-1,0.5-1.6,1.5-1.6,2.7v7h-8c-1.7,0-3,1.3-3,3v9.3h-18
		c-1.7,0-3,1.3-3,3v40.2c0,1.7,1.3,3,3,3h26.6l15.3,10.9c0.5,0.4,1.1,0.6,1.7,0.6c0.5,0,0.9-0.1,1.4-0.3c1-0.5,1.6-1.5,1.6-2.7v-8.5
		h12.3c1.7,0,3-1.3,3-3V71h8c1.7,0,3-1.3,3-3V33C100.5,31.3,99.2,30,97.5,30z M83.5,82.5H71.2c-1.7,0-3,1.3-3,3v5.7l-11.4-8.1
		c-0.5-0.4-1.1-0.6-1.7-0.6H30.5V48.3h53V82.5z M94.5,65h-5V45.3c0-1.7-1.3-3-3-3h-35V36h8c1.7,0,3-1.3,3-3v-4.2l9.3,6.6
		c0.5,0.4,1.1,0.6,1.7,0.6h21V65z"/>
	<path class="st1" d="M42.5,67.8c0.8,0,1.6-0.3,2.1-0.9c0.6-0.6,0.9-1.3,0.9-2.1c0-0.8-0.3-1.6-0.9-2.1c-1.1-1.1-3.1-1.1-4.2,0
		c-0.6,0.6-0.9,1.3-0.9,2.1c0,0.8,0.3,1.6,0.9,2.1C40.9,67.5,41.7,67.8,42.5,67.8z"/>
	<path class="st1" d="M57.4,67.8c0.8,0,1.6-0.3,2.1-0.9c0.6-0.6,0.9-1.3,0.9-2.1c0-0.8-0.3-1.6-0.9-2.1c-1.1-1.1-3.1-1.1-4.2,0
		c-0.5,0.6-0.9,1.3-0.9,2.1c0,0.8,0.3,1.6,0.9,2.1C55.9,67.5,56.7,67.8,57.4,67.8z"/>
	<path class="st1" d="M72.4,67.8c0.8,0,1.6-0.3,2.1-0.9c0.6-0.6,0.9-1.3,0.9-2.1c0-0.8-0.3-1.6-0.9-2.1c-1.1-1.1-3.1-1.1-4.2,0
		c-0.6,0.6-0.9,1.3-0.9,2.1c0,0.8,0.3,1.6,0.9,2.1C70.8,67.5,71.6,67.8,72.4,67.8z"/>
</g>
</svg>
